<svg xmlns="http://www.w3.org/2000/svg" xmlns:xlink="http://www.w3.org/1999/xlink" width="750" height="750"><path fill="#d11947" stroke="" stroke-width="" d="M389.53 436.478a2.526 2.526 0 0 1-2.074 1.64 92.274 92.274 0 0 0-67.675 31.869s-2.047 1.987-7.216-2.075a5.434 5.434 0 0 1-2.504-6.347c7.047-17.748 25.213-29.451 53.94-34.764l.843-.123c5.88-.807 19.561-2.697 24.22 6.497a4.64 4.64 0 0 1 .466 3.303m82.147 87.968l-.165-.215a248.594 248.594 0 0 1 29.175-36.996c.355-.162.613-.268 1.008-.452a49.736 49.736 0 0 0 25.858-7.764 166.71 166.71 0 0 0 12.616-11.647 114.902 114.902 0 0 0 7.544-15.484v-.014l-.195.356.706-1.641.115-.439 1.15-3.558a3.005 3.005 0 0 0-1.567-2.553 4.291 4.291 0 0 0-2.42-.263l.066-.215a10.178 10.178 0 0 0 1.123-3.658v-.255a3.475 3.475 0 0 0-1.763-2.614 5.362 5.362 0 0 0-3.712-.21 5.896 5.896 0 0 0-1.634-1.527c-.289-.207-1.95-.798-5.01 1.057a13.567 13.567 0 0 0-3.356 3.193l.23-1.881a3.293 3.293 0 0 0-2.064-2.233 5.739 5.739 0 0 0-5.058.974 27.35 27.35 0 0 0-5.28 6.615 22.206 22.206 0 0 0-4.747 5.408 16.129 16.129 0 0 1-9.294 1.009 27.106 27.106 0 0 0 6.665-4.909 17.292 17.292 0 0 0 4.587-10.26 8.34 8.34 0 0 0-.129-1.5 4.267 4.267 0 0 0-2.13-3.026c-2.966-1.478-6.51 1.522-7.19 2.145-.052.075-1.034 1.11-1.571 1.689a12.5 12.5 0 0 0-5.018 2.346 10.722 10.722 0 0 1-3.908 1.904 16.462 16.462 0 0 0-5.906 3.04l-.155.119.142-.093c-.369.255-3.624 2.422-4.632 3.106a37.312 37.312 0 0 0-9.813 7.523c-5.249 5.224-11.83 11.695-41.311 21.464-.253-10.8-6.91-39.813-8.255-50.915-2.723-19.609-25.445-46.6-41.787-63.676 15.41 8.957 24.033 10.212 32.515-1.347 2.238-3.5 5.772.277 8.97-.342 4.662-2.426 4.058-3.729 4.058-7.106 1.368-3.619 5.032-1.834 7.754-2.272 6.865-1.136 2.784-8.344 5.47-11.962 30.183-1.803-3.85-29.566 16.466-41.063a57.906 57.906 0 0 0 24.102-22.35c4.868-6.562 5.876-1.434 9.517-6.825 6.577-23.66-4.778-52.845-19.401-72.922-74.9-96.356-160.421-51.929-185.355 7.75-10.31 15.165-7.127 37.212-7.705 55.346-1.94 6.308-5.724 6.133-11.163 2.409a13.732 13.732 0 0 0 2.916 10.77 13.71 13.71 0 0 0 9.948 5.043c.458 1.601 3.309 4.036 4.498 5.703a27.671 27.671 0 0 1-14.72-2.567 9.877 9.877 0 0 0 2.513 7.752 17.926 17.926 0 0 0 12.767 14.69c12.016 4.878 6.377 21.359 4.97 28.127-.44 1.496-.898 2.987-1.293 4.413a32.199 32.199 0 0 0-21.461 23.345c-1.355 25.302-14.397 46.3-14.166 72.484a40.114 40.114 0 0 0 0 5.396c6.479 28.324-1.798 65.447-.43 94.644A726.148 726.148 0 0 0 0 614.692a1009.198 1009.198 0 0 1 375.005-69.677A1009.13 1009.13 0 0 1 750 614.691a731.796 731.796 0 0 0-278.323-90.245"/></svg>